<svg width="40" height="40" viewBox="0 0 40 40" fill="none" xmlns="http://www.w3.org/2000/svg">
<path d="M34.0866 13.0467C33.9226 13.1493 30.0186 15.316 30.0186 20.12C30.2026 25.5987 34.9453 27.52 35.0266 27.52C34.9453 27.6227 34.3106 30.1373 32.4306 32.7733C30.9386 35.044 29.2826 37.3333 26.768 37.3333C24.376 37.3333 23.5173 35.82 20.7573 35.82C17.7933 35.82 16.9546 37.3333 14.6853 37.3333C12.1706 37.3333 10.392 34.9213 8.81864 32.672C6.77464 29.728 5.03731 25.108 4.97598 20.672C4.93464 18.3213 5.38531 16.0107 6.52931 14.048C8.14398 11.308 11.0266 9.448 14.1746 9.38667C16.5866 9.30534 18.7333 11.0427 20.2053 11.0427C21.616 11.0427 24.2533 9.38667 27.2373 9.38667C28.5253 9.388 31.96 9.776 34.0866 13.0467ZM20.0013 8.91734C19.572 6.77067 20.7573 4.624 21.8613 3.25467C23.272 1.59867 25.5 0.47467 27.4213 0.47467C27.544 2.62134 26.7666 4.72667 25.3773 6.26C24.1306 7.916 21.984 9.16267 20.0013 8.91734Z" fill="#040404"/>
</svg>
