<svg width="34" height="34" viewBox="0 0 34 34" fill="none" xmlns="http://www.w3.org/2000/svg">
<path d="M12.2 33H21.8C29.8 33 33 29.7703 33 21.696V18.4663C33 10.392 29.8 7.1623 21.8 7.1623H12.2C4.2 7.1623 1 10.392 1 18.4663V21.696C1 29.7703 4.2 33 12.2 33Z" stroke="currentColor" stroke-width="1.5" stroke-linecap="round" stroke-linejoin="round"/>
<path d="M13.2384 16.8978L8.59082 21.5334" stroke="currentColor" stroke-width="3.5" stroke-miterlimit="10" stroke-linecap="round" stroke-linejoin="round"/>
<path d="M13.2384 16.8978L8.59082 21.5334" stroke="#171717" stroke-width="1.5" stroke-miterlimit="10" stroke-linecap="round" stroke-linejoin="round"/>
<path d="M8.63672 16.9434L13.2843 21.579" stroke="currentColor" stroke-width="3.5" stroke-miterlimit="10" stroke-linecap="round" stroke-linejoin="round"/>
<path d="M8.63672 16.9434L13.2843 21.579" stroke="#171717" stroke-width="1.5" stroke-miterlimit="10" stroke-linecap="round" stroke-linejoin="round"/>
<path d="M19.2725 19.2384H19.2885" stroke="currentColor" stroke-width="4" stroke-miterlimit="10" stroke-linecap="round" stroke-linejoin="round"/>
<path d="M19.2725 19.2384H19.2885" stroke="#171717" stroke-width="2" stroke-miterlimit="10" stroke-linecap="round" stroke-linejoin="round"/>
<path d="M25.2773 19.2384H25.2934" stroke="currentColor" stroke-width="4" stroke-miterlimit="10" stroke-linecap="round" stroke-linejoin="round"/>
<path d="M25.2773 19.2384H25.2934" stroke="#171717" stroke-width="2" stroke-miterlimit="10" stroke-linecap="round" stroke-linejoin="round"/>
<path d="M22.2751 22.2478V22.2174" stroke="currentColor" stroke-width="4" stroke-miterlimit="10" stroke-linecap="round" stroke-linejoin="round"/>
<path d="M22.2751 22.2478V22.2174" stroke="#171717" stroke-width="2" stroke-miterlimit="10" stroke-linecap="round" stroke-linejoin="round"/>
<path d="M22.2751 16.2595V16.2291" stroke="currentColor" stroke-width="4" stroke-miterlimit="10" stroke-linecap="round" stroke-linejoin="round"/>
<path d="M22.2751 16.2595V16.2291" stroke="#171717" stroke-width="2" stroke-miterlimit="10" stroke-linecap="round" stroke-linejoin="round"/>
<path d="M18.4801 1L18.4648 2.53506C18.4496 3.37099 17.7791 4.03973 16.941 4.03973H16.8953C16.0572 4.03973 15.3867 4.72367 15.3867 5.55959C15.3867 6.39552 16.0724 7.07946 16.9105 7.07946H18.4343" stroke="currentColor" stroke-width="1.5" stroke-linecap="round" stroke-linejoin="round"/>
</svg>
