<svg width="32" height="24" viewBox="0 0 32 24" fill="none" xmlns="http://www.w3.org/2000/svg">
<path d="M8.7303 10.809C8.6585 10.802 8.57235 10.802 8.49338 10.809C6.78466 10.753 5.42773 9.388 5.42773 7.708C5.42773 5.993 6.84927 4.6 8.61543 4.6C10.3744 4.6 11.8031 5.993 11.8031 7.708C11.7959 9.388 10.439 10.753 8.7303 10.809Z" stroke="currentColor" stroke-width="1.5" stroke-linecap="round" stroke-linejoin="round"/>
<path d="M5.14048 13.392C3.40304 14.526 3.40304 16.374 5.14048 17.501C7.11484 18.789 10.3528 18.789 12.3271 17.501C14.0646 16.367 14.0646 14.519 12.3271 13.392C10.36 12.111 7.12202 12.111 5.14048 13.392Z" stroke="currentColor" stroke-width="1.5" stroke-linecap="round" stroke-linejoin="round"/>
<path d="M19.8564 10.87C19.7538 10.86 19.6307 10.86 19.5179 10.87C17.0769 10.79 15.1384 8.84 15.1384 6.44C15.1384 3.99 17.1692 2 19.6923 2C22.2051 2 24.2461 3.99 24.2461 6.44C24.2359 8.84 22.2974 10.79 19.8564 10.87Z" stroke="currentColor" stroke-width="1.5" stroke-linecap="round" stroke-linejoin="round"/>
<path d="M14.728 14.56C12.2459 16.18 12.2459 18.82 14.728 20.43C17.5485 22.27 22.1741 22.27 24.9947 20.43C27.4767 18.81 27.4767 16.17 24.9947 14.56C22.1844 12.73 17.5588 12.73 14.728 14.56Z" stroke="currentColor" stroke-width="1.5" stroke-linecap="round" stroke-linejoin="round"/>
</svg>
